# WaveFront *.obj file (generated by Autodesk ATF)

mtllib 39b60081-a95f-42d4-9cbf-17e84602c672.mtl

g Body1

v 0.050000 0.052500 -0.140000
v 0.048420 0.055293 -0.140316
v 0.047603 0.058396 -0.140479
v 0.047603 0.061604 -0.140479
v 0.048420 0.064707 -0.140316
v 0.050000 0.067500 -0.140000
v 0.052165 0.069739 -0.139134
v 0.054816 0.071374 -0.138074
v 0.057788 0.072303 -0.136885
v 0.060898 0.072468 -0.135641
v 0.063953 0.071859 -0.134419
v 0.066762 0.070513 -0.133295
v 0.069151 0.068515 -0.132340
v 0.070972 0.065989 -0.131611
v 0.072112 0.063090 -0.131155
v 0.072500 0.060000 -0.131000
v 0.072112 0.056910 -0.131155
v 0.070972 0.054011 -0.131611
v 0.069151 0.051485 -0.132340
v 0.066762 0.049487 -0.133295
v 0.063953 0.048141 -0.134419
v 0.060898 0.047532 -0.135641
v 0.057788 0.047697 -0.136885
v 0.054816 0.048626 -0.138074
v 0.052165 0.050261 -0.139134
v 0.072500 0.060000 -0.000000
v 0.072074 0.063235 -0.000000
v 0.070825 0.066250 -0.000000
v 0.068839 0.068839 -0.000000
v 0.066250 0.070825 -0.000000
v 0.063235 0.072074 -0.000000
v 0.060000 0.072500 -0.000000
v 0.056765 0.072074 -0.000000
v 0.053750 0.070825 -0.000000
v 0.051161 0.068839 -0.000000
v 0.049175 0.066250 -0.000000
v 0.047926 0.063235 -0.000000
v 0.047500 0.060000 -0.000000
v 0.047926 0.056765 -0.000000
v 0.049175 0.053750 -0.000000
v 0.051161 0.051161 -0.000000
v 0.053750 0.049175 -0.000000
v 0.056765 0.047926 -0.000000
v 0.060000 0.047500 -0.000000
v 0.063235 0.047926 -0.000000
v 0.066250 0.049175 -0.000000
v 0.068839 0.051161 -0.000000
v 0.070825 0.053750 -0.000000
v 0.072074 0.056765 -0.000000
v 0.050000 0.125000 -0.140000
v 0.100000 0.125000 -0.120000
v 0.100000 0.000000 -0.120000
v 0.050000 0.000000 -0.140000
v 0.000000 0.005000 -0.005000
v 0.005000 0.000000 -0.005000
v 0.005000 0.005000 -0.000000
v 0.235000 0.000000 -0.005000
v 0.240000 0.005000 -0.000000
v 0.005000 0.125000 -0.005000
v 0.000000 0.120000 -0.005000
v 0.005000 0.120000 0.000000
v 0.240000 0.120000 -0.000000
v 0.235000 0.125000 -0.005000
v 0.000000 0.120000 -0.145000
v 0.005000 0.125000 -0.149000
v 0.004903 0.124903 -0.149019
v 0.005000 0.000000 -0.149000
v 0.000000 0.005000 -0.145000
v 0.004903 0.000097 -0.149019
v 0.150000 0.000000 -0.090000
v 0.150000 0.125000 -0.090000
vt 14.031596 -0.482626 0.000000
vt -0.000000 -0.654498 0.000000
vt 14.000000 -0.804376 0.000000
vt -0.000000 -0.981748 0.000000
vt 13.913418 -1.116638 0.000000
vt -0.000000 -1.308997 0.000000
vt 13.807379 -1.428899 0.000000
vt -0.000000 -1.636246 0.000000
vt 13.688466 -1.741161 0.000000
vt -0.000000 -1.963495 0.000000
vt 13.564060 -2.053422 0.000000
vt -0.000000 -2.290745 0.000000
vt 13.441886 -2.365684 0.000000
vt -0.000000 -2.617994 0.000000
vt 13.329528 -2.677945 0.000000
vt -0.000000 -2.945243 0.000000
vt 13.233960 -2.990206 0.000000
vt -0.000000 -3.272492 0.000000
vt 13.161117 -3.302468 0.000000
vt -0.000000 -3.599742 0.000000
vt 13.115520 -3.614729 0.000000
vt 0.000000 -3.926991 0.000000
vt 13.100000 -3.926991 0.000000
vt 13.100000 3.926991 0.000000
vt 0.000000 3.926991 0.000000
vt 13.115520 3.614729 0.000000
vt -0.000000 3.599742 0.000000
vt 13.161117 3.302468 0.000000
vt -0.000000 3.272492 0.000000
vt 13.233960 2.990206 0.000000
vt -0.000000 2.945243 0.000000
vt 13.329528 2.677945 0.000000
vt -0.000000 2.617994 0.000000
vt 13.441886 2.365684 0.000000
vt -0.000000 2.290745 0.000000
vt 13.564060 2.053422 0.000000
vt -0.000000 1.963495 0.000000
vt 13.688466 1.741161 0.000000
vt -0.000000 1.636246 0.000000
vt 13.807379 1.428899 0.000000
vt -0.000000 1.308997 0.000000
vt 13.913418 1.116638 0.000000
vt -0.000000 0.981748 0.000000
vt 14.000000 0.804376 0.000000
vt -0.000000 0.654498 0.000000
vt 14.031596 0.482626 0.000000
vt -0.000000 0.327249 0.000000
vt 14.047932 0.160875 0.000000
vt -0.000000 0.000000 0.000000
vt 14.047932 -0.160875 0.000000
vt -0.000000 -0.327249 0.000000
vt 5.385165 5.250000 0.000000
vt 5.152036 5.026061 0.000000
vt 5.385165 0.000000 0.000000
vt 4.866517 4.862585 0.000000
vt 4.546333 4.769721 0.000000
vt 4.211361 4.753233 0.000000
vt 3.882397 4.814146 0.000000
vt 3.579863 4.948677 0.000000
vt -0.000000 0.000000 0.000000
vt 3.322540 5.148475 0.000000
vt 3.126404 5.401137 0.000000
vt 3.003630 5.690976 0.000000
vt 2.961841 6.000000 0.000000
vt -0.000000 12.500000 0.000000
vt 3.003630 6.309024 0.000000
vt 3.126404 6.598863 0.000000
vt 3.322540 6.851525 0.000000
vt 3.579863 7.051323 0.000000
vt 5.385165 12.500000 0.000000
vt 3.882397 7.185854 0.000000
vt 4.211361 7.246767 0.000000
vt 4.546333 7.230279 0.000000
vt 4.866517 7.137415 0.000000
vt 5.152036 6.973939 0.000000
vt 5.385165 6.750000 0.000000
vt -0.707107 -0.000000 0.000000
vt -0.353553 -0.612372 0.000000
vt -0.000000 -0.000000 0.000000
vt 18.000000 0.353553 0.000000
vt -5.500000 0.353553 0.000000
vt 17.500000 -0.353553 0.000000
vt -5.500000 -0.353553 0.000000
vt -0.353553 0.612372 0.000000
vt -0.707107 0.000000 0.000000
vt 0.000000 -0.000000 0.000000
vt 0.353553 12.000000 0.000000
vt -0.353553 12.000000 0.000000
vt 0.353553 0.500000 0.000000
vt -0.353553 0.500000 0.000000
vt 18.000000 -0.353553 0.000000
vt 17.500000 0.353553 0.000000
vt -5.500000 -0.353553 0.000000
vt -5.500000 0.353553 0.000000
vt 10.750000 -0.353553 0.000000
vt 10.750000 0.353553 0.000000
vt -3.250000 -0.353553 0.000000
vt -3.651942 0.339822 0.000000
vt -3.650000 0.353553 0.000000
vt -3.650000 -0.353553 0.000000
vt 10.750000 -0.353553 0.000000
vt -3.651942 -0.339822 0.000000
vt -3.250000 0.353553 0.000000
vt 10.750000 0.353553 0.000000
vt -0.316994 12.490290 0.000000
vt -0.316994 0.009710 0.000000
vt 0.316994 12.000000 0.000000
vt 0.316994 0.500000 0.000000
vt 7.207407 5.676476 0.000000
vt 24.000000 0.500000 0.000000
vt 7.250000 6.000000 0.000000
vt 24.000000 12.000000 0.000000
vt 7.207407 6.323524 0.000000
vt 7.082532 6.625000 0.000000
vt 6.883883 6.883883 0.000000
vt 6.625000 7.082532 0.000000
vt 6.323524 7.207407 0.000000
vt 0.500000 12.000000 0.000000
vt 6.000000 7.250000 0.000000
vt 5.676476 7.207407 0.000000
vt 5.375000 7.082532 0.000000
vt 5.116117 6.883883 0.000000
vt 4.917468 6.625000 0.000000
vt 4.792593 6.323524 0.000000
vt 4.750000 6.000000 0.000000
vt 0.500000 0.500000 0.000000
vt 4.792593 5.676476 0.000000
vt 4.917468 5.375000 0.000000
vt 5.116117 5.116117 0.000000
vt 5.375000 4.917468 0.000000
vt 5.676476 4.792593 0.000000
vt 6.000000 4.750000 0.000000
vt 6.323524 4.792593 0.000000
vt 6.625000 4.917468 0.000000
vt 6.883883 5.116117 0.000000
vt 7.082532 5.375000 0.000000
vt -11.500000 -7.000000 0.000000
vt 11.500000 -7.000000 0.000000
vt -3.000000 1.500000 0.000000
vt 2.000000 4.500000 0.000000
vt 7.000000 6.500000 0.000000
vt 11.500000 7.400000 0.000000
vt 14.500000 12.000000 0.000000
vt 0.500000 12.000000 0.000000
vt 14.500000 0.500000 0.000000
vt 0.500000 0.500000 0.000000
vt -0.000000 6.750000 0.000000
vt 0.161109 6.470724 0.000000
vt -0.000000 12.500000 0.000000
vt 0.244408 6.160432 0.000000
vt 4.589118 12.500000 0.000000
vt 4.589118 0.000000 0.000000
vt 4.599020 0.009710 0.000000
vt 0.244408 5.839568 0.000000
vt -0.000000 0.000000 0.000000
vt 0.161109 5.529276 0.000000
vt -0.000000 5.250000 0.000000
vt 4.599020 12.490290 0.000000
vt -0.000000 0.000000 0.000000
vt 5.830952 0.000000 0.000000
vt -0.000000 12.500000 0.000000
vt 5.830952 12.500000 0.000000
vt -0.000000 12.000000 0.000000
vt -0.000000 0.500000 0.000000
vt 0.707107 12.500000 0.000000
vt 0.707107 0.000000 0.000000
vt 12.727922 0.000000 0.000000
vt 12.727922 12.500000 0.000000
vt 7.000000 11.500000 0.000000
vt -1.500000 3.000000 0.000000
vt 7.000000 -11.500000 0.000000
vt -4.500000 -2.000000 0.000000
vt -6.500000 -7.000000 0.000000
vt -7.400000 -11.500000 0.000000
vn 92.638451 37.657900 -0.000000
vn 86.602540 50.000000 -0.000000
vn 80.000000 60.000000 -0.000000
vn 70.710678 70.710678 -0.000000
vn 62.683627 77.915101 -0.000000
vn 50.000000 86.602540 -0.000000
vn 41.475807 90.993172 -0.000000
vn 25.881905 96.592583 -0.000000
vn 17.693137 98.422319 -0.000000
vn 0.000000 100.000000 -0.000000
vn -7.187936 99.741333 0.000000
vn -25.881905 96.592583 0.000000
vn -31.622777 94.868330 0.000000
vn -50.000000 86.602540 0.000000
vn -54.094451 84.105828 0.000000
vn -70.710678 70.710678 0.000000
vn -73.207901 68.121973 0.000000
vn -86.602540 50.000000 0.000000
vn -87.776549 47.909054 0.000000
vn -96.592583 25.881905 0.000000
vn -96.895962 24.721904 0.000000
vn -100.000000 0.000000 0.000000
vn -100.000000 0.000000 0.000000
vn -96.895962 -24.721904 0.000000
vn -96.592583 -25.881905 0.000000
vn -87.776549 -47.909054 0.000000
vn -86.602540 -50.000000 0.000000
vn -73.207901 -68.121973 0.000000
vn -70.710678 -70.710678 0.000000
vn -54.094451 -84.105828 0.000000
vn -50.000000 -86.602540 0.000000
vn -31.622777 -94.868330 0.000000
vn -25.881905 -96.592583 0.000000
vn -7.187936 -99.741333 0.000000
vn 0.000000 -100.000000 -0.000000
vn 17.693137 -98.422319 -0.000000
vn 25.881905 -96.592583 -0.000000
vn 41.475807 -90.993172 -0.000000
vn 50.000000 -86.602540 -0.000000
vn 62.683627 -77.915101 -0.000000
vn 70.710678 -70.710678 -0.000000
vn 80.000000 -60.000000 -0.000000
vn 86.602540 -50.000000 -0.000000
vn 92.638451 -37.657900 -0.000000
vn 96.592583 -25.881905 -0.000000
vn 99.172955 -12.834522 -0.000000
vn 100.000000 0.000000 -0.000000
vn 99.172955 12.834522 -0.000000
vn 96.592583 25.881905 -0.000000
vn 37.139068 0.000000 -92.847669
vn 37.139068 0.000000 -92.847669
vn 37.139068 0.000000 -92.847669
vn 37.139068 0.000000 -92.847669
vn 37.139068 0.000000 -92.847669
vn 37.139068 0.000000 -92.847669
vn 37.139068 0.000000 -92.847669
vn 37.139068 0.000000 -92.847669
vn 37.139068 0.000000 -92.847669
vn 37.139068 0.000000 -92.847669
vn 37.139068 0.000000 -92.847669
vn 37.139068 0.000000 -92.847669
vn 37.139068 0.000000 -92.847669
vn 37.139068 0.000000 -92.847669
vn 37.139068 0.000000 -92.847669
vn 37.139068 0.000000 -92.847669
vn 37.139068 0.000000 -92.847669
vn 37.139068 0.000000 -92.847669
vn 37.139068 0.000000 -92.847669
vn 37.139068 0.000000 -92.847669
vn 37.139068 0.000000 -92.847669
vn 37.139068 0.000000 -92.847669
vn 37.139068 0.000000 -92.847669
vn 37.139068 0.000000 -92.847669
vn 37.139068 0.000000 -92.847669
vn -57.735027 -57.735027 57.735027
vn -57.735027 -57.735027 57.735027
vn -57.735027 -57.735027 57.735027
vn 0.000000 -70.710678 70.710678
vn 0.000000 -70.710678 70.710678
vn 0.000000 -70.710678 70.710678
vn 0.000000 -70.710678 70.710678
vn -57.735027 57.735027 57.735027
vn -57.735027 57.735027 57.735027
vn -57.735027 57.735027 57.735027
vn -70.710678 0.000000 70.710678
vn -70.710678 0.000000 70.710678
vn -70.710678 0.000000 70.710678
vn -70.710678 0.000000 70.710678
vn 0.000000 70.710678 70.710678
vn 0.000000 70.710678 70.710678
vn 0.000000 70.710678 70.710678
vn 0.000000 70.710678 70.710678
vn -70.710678 70.710678 0.000000
vn -70.710678 70.710678 0.000000
vn -70.710678 70.710678 0.000000
vn -70.710678 70.710678 0.000000
vn -70.710678 70.710678 0.000000
vn -70.710678 -70.710678 0.000000
vn -70.710678 -70.710678 0.000000
vn -70.710678 -70.710678 0.000000
vn -70.710678 -70.710678 0.000000
vn -70.710678 -70.710678 0.000000
vn -63.398891 0.000000 -77.334214
vn -63.398891 0.000000 -77.334214
vn -63.398891 0.000000 -77.334214
vn -63.398891 0.000000 -77.334214
vn 0.000000 -0.000000 100.000000
vn 0.000000 -0.000000 100.000000
vn 0.000000 -0.000000 100.000000
vn 0.000000 -0.000000 100.000000
vn 0.000000 -0.000000 100.000000
vn 0.000000 -0.000000 100.000000
vn 0.000000 -0.000000 100.000000
vn 0.000000 -0.000000 100.000000
vn 0.000000 -0.000000 100.000000
vn 0.000000 -0.000000 100.000000
vn 0.000000 -0.000000 100.000000
vn 0.000000 -0.000000 100.000000
vn 0.000000 -0.000000 100.000000
vn 0.000000 -0.000000 100.000000
vn 0.000000 -0.000000 100.000000
vn 0.000000 -0.000000 100.000000
vn 0.000000 -0.000000 100.000000
vn 0.000000 -0.000000 100.000000
vn 0.000000 -0.000000 100.000000
vn 0.000000 -0.000000 100.000000
vn 0.000000 -0.000000 100.000000
vn 0.000000 -0.000000 100.000000
vn 0.000000 -0.000000 100.000000
vn 0.000000 -0.000000 100.000000
vn 0.000000 -0.000000 100.000000
vn 0.000000 -0.000000 100.000000
vn 0.000000 -0.000000 100.000000
vn 0.000000 -0.000000 100.000000
vn 0.000000 -100.000000 0.000000
vn 0.000000 -100.000000 0.000000
vn 0.000000 -100.000000 0.000000
vn 0.000000 -100.000000 0.000000
vn 0.000000 -100.000000 0.000000
vn 0.000000 -100.000000 0.000000
vn -100.000000 0.000000 0.000000
vn -100.000000 0.000000 0.000000
vn -100.000000 0.000000 0.000000
vn -100.000000 0.000000 0.000000
vn 19.611614 0.000000 -98.058068
vn 19.611614 0.000000 -98.058068
vn 19.611614 0.000000 -98.058068
vn 19.611614 0.000000 -98.058068
vn 19.611614 0.000000 -98.058068
vn 19.611614 0.000000 -98.058068
vn 19.611614 0.000000 -98.058068
vn 19.611614 0.000000 -98.058068
vn 19.611614 0.000000 -98.058068
vn 19.611614 0.000000 -98.058068
vn 19.611614 0.000000 -98.058068
vn 19.611614 0.000000 -98.058068
vn 51.449576 0.000000 -85.749293
vn 51.449576 0.000000 -85.749293
vn 51.449576 0.000000 -85.749293
vn 51.449576 0.000000 -85.749293
vn 70.710678 0.000000 -70.710678
vn 70.710678 0.000000 -70.710678
vn 70.710678 0.000000 -70.710678
vn 70.710678 0.000000 -70.710678
vn 70.710678 0.000000 -70.710678
vn 70.710678 0.000000 -70.710678
vn 0.000000 100.000000 0.000000
vn 0.000000 100.000000 0.000000
vn 0.000000 100.000000 0.000000
vn 0.000000 100.000000 0.000000
vn 0.000000 100.000000 0.000000
vn 0.000000 100.000000 0.000000
usemtl Steel_-_Satin
f 2/1/1 40/2/2 1/3/3
f 1/3/3 40/2/2 41/4/4
f 1/3/3 41/4/4 25/5/5
f 25/5/5 41/4/4 42/6/6
f 25/5/5 42/6/6 24/7/7
f 24/7/7 42/6/6 43/8/8
f 24/7/7 43/8/8 23/9/9
f 23/9/9 43/8/8 44/10/10
f 23/9/9 44/10/10 22/11/11
f 22/11/11 44/10/10 45/12/12
f 22/11/11 45/12/12 21/13/13
f 21/13/13 45/12/12 46/14/14
f 21/13/13 46/14/14 20/15/15
f 20/15/15 46/14/14 47/16/16
f 20/15/15 47/16/16 19/17/17
f 19/17/17 47/16/16 48/18/18
f 19/17/17 48/18/18 18/19/19
f 18/19/19 48/18/18 49/20/20
f 18/19/19 49/20/20 17/21/21
f 17/21/21 49/20/20 26/22/22
f 17/21/21 26/22/22 16/23/23
f 16/24/23 26/25/22 15/26/24
f 15/26/24 26/25/22 27/27/25
f 15/26/24 27/27/25 14/28/26
f 14/28/26 27/27/25 28/29/27
f 14/28/26 28/29/27 13/30/28
f 13/30/28 28/29/27 29/31/29
f 13/30/28 29/31/29 12/32/30
f 12/32/30 29/31/29 30/33/31
f 12/32/30 30/33/31 11/34/32
f 11/34/32 30/33/31 31/35/33
f 11/34/32 31/35/33 10/36/34
f 10/36/34 31/35/33 32/37/35
f 10/36/34 32/37/35 9/38/36
f 9/38/36 32/37/35 33/39/37
f 9/38/36 33/39/37 8/40/38
f 8/40/38 33/39/37 34/41/39
f 8/40/38 34/41/39 7/42/40
f 7/42/40 34/41/39 35/43/41
f 7/42/40 35/43/41 6/44/42
f 6/44/42 35/43/41 36/45/43
f 6/44/42 36/45/43 5/46/44
f 5/46/44 36/45/43 37/47/45
f 5/46/44 37/47/45 4/48/46
f 4/48/46 37/47/45 38/49/47
f 4/48/46 38/49/47 3/50/48
f 3/50/48 38/49/47 39/51/49
f 3/50/48 39/51/49 2/1/1
f 2/1/1 39/51/49 40/2/2
f 1/52/50 25/53/51 53/54/52
f 53/54/52 25/53/51 24/55/53
f 53/54/52 24/55/53 23/56/54
f 23/56/54 22/57/55 53/54/52
f 53/54/52 22/57/55 21/58/56
f 53/54/52 21/58/56 20/59/57
f 53/54/52 20/59/57 52/60/58
f 52/60/58 20/59/57 19/61/59
f 52/60/58 19/61/59 18/62/60
f 18/62/60 17/63/61 52/60/58
f 52/60/58 17/63/61 16/64/62
f 52/60/58 16/64/62 51/65/63
f 51/65/63 16/64/62 15/66/64
f 51/65/63 15/66/64 14/67/65
f 14/67/65 13/68/66 51/65/63
f 51/65/63 13/68/66 12/69/67
f 51/65/63 12/69/67 50/70/68
f 50/70/68 12/69/67 11/71/69
f 50/70/68 11/71/69 10/72/70
f 10/72/70 9/73/71 50/70/68
f 50/70/68 9/73/71 8/74/72
f 50/70/68 8/74/72 7/75/73
f 7/75/73 6/76/74 50/70/68
f 54/77/75 55/78/76 56/79/77
f 58/80/78 56/81/79 57/82/80
f 57/82/80 56/81/79 55/83/81
f 59/84/82 60/85/83 61/86/84
f 61/87/85 60/88/86 56/89/87
f 56/89/87 60/88/86 54/90/88
f 62/91/89 63/92/90 61/93/91
f 61/93/91 63/92/90 59/94/92
f 60/95/93 59/96/94 64/97/95
f 64/97/95 59/96/94 66/98/96
f 66/98/96 59/96/94 65/99/97
f 67/100/98 55/101/99 69/102/100
f 69/102/100 55/101/99 68/103/101
f 68/103/101 55/101/99 54/104/102
f 66/105/103 69/106/104 64/107/105
f 64/107/105 69/106/104 68/108/106
f 49/109/107 58/110/108 26/111/109
f 26/111/109 58/110/108 62/112/110
f 26/111/109 62/112/110 27/113/111
f 27/113/111 62/112/110 28/114/112
f 28/114/112 62/112/110 29/115/113
f 29/115/113 62/112/110 30/116/114
f 30/116/114 62/112/110 31/117/115
f 31/117/115 62/112/110 61/118/116
f 31/117/115 61/118/116 32/119/117
f 32/119/117 61/118/116 33/120/118
f 33/120/118 61/118/116 34/121/119
f 34/121/119 61/118/116 35/122/120
f 35/122/120 61/118/116 36/123/121
f 36/123/121 61/118/116 37/124/122
f 37/124/122 61/118/116 38/125/123
f 38/125/123 61/118/116 56/126/124
f 38/125/123 56/126/124 39/127/125
f 39/127/125 56/126/124 40/128/126
f 40/128/126 56/126/124 41/129/127
f 41/129/127 56/126/124 42/130/128
f 42/130/128 56/126/124 43/131/129
f 43/131/129 56/126/124 44/132/130
f 44/132/130 56/126/124 45/133/131
f 45/133/131 56/126/124 58/110/108
f 45/133/131 58/110/108 46/134/132
f 46/134/132 58/110/108 47/135/133
f 47/135/133 58/110/108 48/136/134
f 48/136/134 58/110/108 49/109/107
f 57/137/135 55/138/136 70/139/137
f 70/139/137 55/138/136 52/140/138
f 52/140/138 55/138/136 53/141/139
f 53/141/139 55/138/136 67/142/140
f 60/143/141 64/144/142 54/145/143
f 54/145/143 64/144/142 68/146/144
f 6/147/145 5/148/146 50/149/147
f 50/149/147 5/148/146 4/150/148
f 50/149/147 4/150/148 65/151/149
f 65/151/149 4/150/148 67/152/150
f 65/151/149 67/152/150 69/153/151
f 4/150/148 3/154/152 67/152/150
f 67/152/150 3/154/152 53/155/153
f 53/155/153 3/154/152 2/156/154
f 53/155/153 2/156/154 1/157/155
f 69/153/151 66/158/156 65/151/149
f 70/159/157 52/160/158 71/161/159
f 71/161/159 52/160/158 51/162/160
f 62/163/161 58/164/162 63/165/163
f 63/165/163 58/164/162 57/166/164
f 63/165/163 57/166/164 70/167/165
f 70/167/165 71/168/166 63/165/163
f 63/169/167 71/170/168 59/171/169
f 59/171/169 71/170/168 51/172/170
f 59/171/169 51/172/170 50/173/171
f 50/173/171 65/174/172 59/171/169
# 71 vertices
# 174 texture params
# 172 normals
# 142 facets

# 1 groups
