# WaveFront *.obj file (generated by Autodesk ATF)

mtllib 3c92cd2d-b59f-4c40-961c-3a75df560c75.mtl

g Body1

v 5.000000 10.000000 -70.000000
v 5.000000 5.000000 -75.000000
v 0.000000 5.000000 -70.000000
v 5.000000 10.000000 70.000000
v 0.000000 5.000000 70.000000
v 5.000000 5.000000 75.000000
v 5.000000 -5.000000 -75.000000
v 5.000000 -10.000000 -70.000000
v 0.000000 -5.000000 -70.000000
v 20.000000 5.000000 -70.000000
v 15.000000 5.000000 -75.000000
v 15.000000 10.000000 -70.000000
v 20.000000 5.000000 70.000000
v 15.000000 10.000000 70.000000
v 15.000000 5.000000 75.000000
v 5.000000 -10.000000 70.000000
v 5.000000 -5.000000 75.000000
v 0.000000 -5.000000 70.000000
v 20.000000 -5.000000 -70.000000
v 15.000000 -10.000000 -70.000000
v 15.000000 -5.000000 -75.000000
v 20.000000 -5.000000 70.000000
v 15.000000 -5.000000 75.000000
v 15.000000 -10.000000 70.000000
vt -0.353553 0.612372 0.000000
vt -0.707107 0.000000 0.000000
vt 0.000000 0.000000 0.000000
vt -0.353553 0.612372 0.000000
vt -0.707107 0.000000 0.000000
vt 0.000000 0.000000 0.000000
vt -0.707107 0.000000 0.000000
vt -0.353553 -0.612372 0.000000
vt -0.000000 0.000000 0.000000
vt -0.353553 -0.612372 0.000000
vt 0.353553 -0.612372 0.000000
vt 0.000000 0.000000 0.000000
vt -1.500000 -0.353553 0.000000
vt -0.500000 -0.353553 0.000000
vt -1.500000 0.353553 0.000000
vt -0.500000 0.353553 0.000000
vt 0.707107 0.000000 0.000000
vt 0.353553 0.612372 0.000000
vt 0.000000 0.000000 0.000000
vt 1.500000 0.353553 0.000000
vt 0.500000 0.353553 0.000000
vt 1.500000 -0.353553 0.000000
vt 0.500000 -0.353553 0.000000
vt 0.353553 -0.612372 0.000000
vt 0.707107 0.000000 0.000000
vt 0.000000 -0.000000 0.000000
vt 0.353553 -0.000000 0.000000
vt -0.353553 -0.000000 0.000000
vt 0.353553 -1.000000 0.000000
vt -0.353553 -1.000000 0.000000
vt 3.250000 0.353553 0.000000
vt -10.750000 0.353553 0.000000
vt 3.250000 -0.353553 0.000000
vt -10.750000 -0.353553 0.000000
vt -0.707107 -0.000000 0.000000
vt -0.353553 -0.612372 0.000000
vt 0.000000 0.000000 0.000000
vt -1.500000 -0.353553 0.000000
vt -0.500000 -0.353553 0.000000
vt -1.500000 0.353553 0.000000
vt -0.500000 0.353553 0.000000
vt 0.353553 1.000000 0.000000
vt -0.353553 1.000000 0.000000
vt 0.353553 0.000000 0.000000
vt -0.353553 0.000000 0.000000
vt 0.353553 0.612372 0.000000
vt -0.353553 0.612372 0.000000
vt 0.000000 0.000000 0.000000
vt 1.500000 0.353553 0.000000
vt 0.500000 0.353553 0.000000
vt 1.500000 -0.353553 0.000000
vt 0.500000 -0.353553 0.000000
vt 10.750000 0.353553 0.000000
vt -3.250000 0.353553 0.000000
vt 10.750000 -0.353553 0.000000
vt -3.250000 -0.353553 0.000000
vt -0.353553 -1.000000 0.000000
vt 0.353553 -1.000000 0.000000
vt -0.353553 -0.000000 0.000000
vt 0.353553 -0.000000 0.000000
vt -10.750000 -0.353553 0.000000
vt 3.250000 -0.353553 0.000000
vt -10.750000 0.353553 0.000000
vt 3.250000 0.353553 0.000000
vt -0.353553 0.000000 0.000000
vt 0.353553 0.000000 0.000000
vt -0.353553 1.000000 0.000000
vt 0.353553 1.000000 0.000000
vt -3.250000 -0.353553 0.000000
vt 10.750000 -0.353553 0.000000
vt -3.250000 0.353553 0.000000
vt 10.750000 0.353553 0.000000
vt 14.500000 1.500000 0.000000
vt 0.500000 1.500000 0.000000
vt 14.500000 0.500000 0.000000
vt 0.500000 0.500000 0.000000
vt 0.500000 0.500000 0.000000
vt 1.500000 0.500000 0.000000
vt 0.500000 1.500000 0.000000
vt 1.500000 1.500000 0.000000
vt 0.500000 7.000000 0.000000
vt -0.500000 7.000000 0.000000
vt 0.500000 -7.000000 0.000000
vt -0.500000 -7.000000 0.000000
vt 0.500000 0.500000 0.000000
vt 14.500000 0.500000 0.000000
vt 0.500000 1.500000 0.000000
vt 14.500000 1.500000 0.000000
vt 0.500000 0.500000 0.000000
vt 1.500000 0.500000 0.000000
vt 0.500000 1.500000 0.000000
vt 1.500000 1.500000 0.000000
vt 7.000000 0.500000 0.000000
vt -7.000000 0.500000 0.000000
vt 7.000000 -0.500000 0.000000
vt -7.000000 -0.500000 0.000000
vn -0.057735 0.057735 -0.057735
vn -0.057735 0.057735 -0.057735
vn -0.057735 0.057735 -0.057735
vn -0.057735 0.057735 0.057735
vn -0.057735 0.057735 0.057735
vn -0.057735 0.057735 0.057735
vn -0.057735 -0.057735 -0.057735
vn -0.057735 -0.057735 -0.057735
vn -0.057735 -0.057735 -0.057735
vn 0.057735 0.057735 -0.057735
vn 0.057735 0.057735 -0.057735
vn 0.057735 0.057735 -0.057735
vn 0.000000 0.070711 -0.070711
vn 0.000000 0.070711 -0.070711
vn 0.000000 0.070711 -0.070711
vn 0.000000 0.070711 -0.070711
vn 0.057735 0.057735 0.057735
vn 0.057735 0.057735 0.057735
vn 0.057735 0.057735 0.057735
vn 0.000000 0.070711 0.070711
vn 0.000000 0.070711 0.070711
vn 0.000000 0.070711 0.070711
vn 0.000000 0.070711 0.070711
vn -0.057735 -0.057735 0.057735
vn -0.057735 -0.057735 0.057735
vn -0.057735 -0.057735 0.057735
vn -0.070711 0.000000 0.070711
vn -0.070711 0.000000 0.070711
vn -0.070711 0.000000 0.070711
vn -0.070711 0.000000 0.070711
vn -0.070711 -0.070711 0.000000
vn -0.070711 -0.070711 0.000000
vn -0.070711 -0.070711 0.000000
vn -0.070711 -0.070711 0.000000
vn 0.057735 -0.057735 -0.057735
vn 0.057735 -0.057735 -0.057735
vn 0.057735 -0.057735 -0.057735
vn 0.000000 -0.070711 -0.070711
vn 0.000000 -0.070711 -0.070711
vn 0.000000 -0.070711 -0.070711
vn 0.000000 -0.070711 -0.070711
vn 0.070711 0.000000 -0.070711
vn 0.070711 0.000000 -0.070711
vn 0.070711 0.000000 -0.070711
vn 0.070711 0.000000 -0.070711
vn 0.057735 -0.057735 0.057735
vn 0.057735 -0.057735 0.057735
vn 0.057735 -0.057735 0.057735
vn 0.000000 -0.070711 0.070711
vn 0.000000 -0.070711 0.070711
vn 0.000000 -0.070711 0.070711
vn 0.000000 -0.070711 0.070711
vn 0.070711 -0.070711 0.000000
vn 0.070711 -0.070711 0.000000
vn 0.070711 -0.070711 0.000000
vn 0.070711 -0.070711 0.000000
vn 0.070711 0.000000 0.070711
vn 0.070711 0.000000 0.070711
vn 0.070711 0.000000 0.070711
vn 0.070711 0.000000 0.070711
vn 0.070711 0.070711 0.000000
vn 0.070711 0.070711 0.000000
vn 0.070711 0.070711 0.000000
vn 0.070711 0.070711 0.000000
vn -0.070711 0.000000 -0.070711
vn -0.070711 0.000000 -0.070711
vn -0.070711 0.000000 -0.070711
vn -0.070711 0.000000 -0.070711
vn -0.070711 0.070711 0.000000
vn -0.070711 0.070711 0.000000
vn -0.070711 0.070711 0.000000
vn -0.070711 0.070711 0.000000
vn 0.000000 0.100000 0.000000
vn 0.000000 0.100000 0.000000
vn 0.000000 0.100000 0.000000
vn 0.000000 0.100000 0.000000
vn 0.000000 0.000000 0.100000
vn 0.000000 0.000000 0.100000
vn 0.000000 0.000000 0.100000
vn 0.000000 0.000000 0.100000
vn -0.100000 0.000000 0.000000
vn -0.100000 0.000000 0.000000
vn -0.100000 0.000000 0.000000
vn -0.100000 0.000000 0.000000
vn 0.000000 -0.100000 0.000000
vn 0.000000 -0.100000 0.000000
vn 0.000000 -0.100000 0.000000
vn 0.000000 -0.100000 0.000000
vn 0.000000 0.000000 -0.100000
vn 0.000000 0.000000 -0.100000
vn 0.000000 0.000000 -0.100000
vn 0.000000 0.000000 -0.100000
vn 0.100000 0.000000 0.000000
vn 0.100000 0.000000 0.000000
vn 0.100000 0.000000 0.000000
vn 0.100000 0.000000 0.000000
usemtl Steel_-_Satin
f 1/1/1 2/2/2 3/3/3
f 4/4/4 5/5/5 6/6/6
f 7/7/7 8/8/8 9/9/9
f 10/10/10 11/11/11 12/12/12
f 11/13/13 2/14/14 12/15/15
f 12/15/15 2/14/14 1/16/16
f 13/17/17 14/18/18 15/19/19
f 14/20/20 4/21/21 15/22/22
f 15/22/22 4/21/21 6/23/23
f 16/24/24 17/25/25 18/26/26
f 6/27/27 5/28/28 17/29/29
f 17/29/29 5/28/28 18/30/30
f 18/31/31 9/32/32 16/33/33
f 16/33/33 9/32/32 8/34/34
f 19/35/35 20/36/36 21/37/37
f 20/38/38 8/39/39 21/40/40
f 21/40/40 8/39/39 7/41/41
f 11/42/42 10/43/43 21/44/44
f 21/44/44 10/43/43 19/45/45
f 22/46/46 23/47/47 24/48/48
f 23/49/49 17/50/50 24/51/51
f 24/51/51 17/50/50 16/52/52
f 19/53/53 22/54/54 20/55/55
f 20/55/55 22/54/54 24/56/56
f 23/57/57 22/58/58 15/59/59
f 15/59/59 22/58/58 13/60/60
f 13/61/61 10/62/62 14/63/63
f 14/63/63 10/62/62 12/64/64
f 7/65/65 9/66/66 2/67/67
f 2/67/67 9/66/66 3/68/68
f 3/69/69 5/70/70 1/71/71
f 1/71/71 5/70/70 4/72/72
f 14/73/73 12/74/74 4/75/75
f 4/75/75 12/74/74 1/76/76
f 6/77/77 17/78/78 15/79/79
f 15/79/79 17/78/78 23/80/80
f 18/81/81 5/82/82 9/83/83
f 9/83/83 5/82/82 3/84/84
f 16/85/85 8/86/86 24/87/87
f 24/87/87 8/86/86 20/88/88
f 7/89/89 2/90/90 21/91/91
f 21/91/91 2/90/90 11/92/92
f 10/93/93 13/94/94 19/95/95
f 19/95/95 13/94/94 22/96/96
# 24 vertices
# 96 texture params
# 96 normals
# 44 facets

# 1 groups
